<?xml version="1.0" encoding="UTF-8"?>
<svg width="354px" height="103px" viewBox="0 0 354 103" version="1.1" xmlns="http://www.w3.org/2000/svg" xmlns:xlink="http://www.w3.org/1999/xlink">
    <!-- Generator: Sketch 43.2 (39069) - http://www.bohemiancoding.com/sketch -->
    <title>Group 2</title>
    <desc>Created with Sketch.</desc>
    <defs>
        <filter x="-10.9%" y="-19.2%" width="121.9%" height="138.3%" filterUnits="objectBoundingBox" id="filter-1">
            <feGaussianBlur stdDeviation="2.93526786" in="SourceGraphic"></feGaussianBlur>
        </filter>
    </defs>
    <g id="Page-1" stroke="none" stroke-width="1" fill="none" fill-rule="evenodd">
        <g id="Group-2" transform="translate(-20.000000, -26.000000)">
            <rect id="Rectangle-10" x="0" y="0" width="400" height="150"></rect>
            <g id="Group-32" transform="translate(25.000000, 26.000000)">
                <g id="Group-30" transform="translate(97.794118, 34.385965)" fill="#3A455C">
                    <polygon id="Path" points="2.68351058 32.1164912 2.68351058 16.9933827 17.9243803 16.9933827 17.9243803 15.4266721 2.68351058 15.4266721 2.68351058 2.30547149 19.2477554 2.30547149 19.2477554 0.717001096 0.941066725 0.717001096 0.941066725 32.1164912"></polygon>
                    <path d="M45.4946945,32.1164912 L41.5245692,21.6499945 L27.2100621,21.6499945 L23.2619931,32.1164912 L21.3651555,32.1164912 L33.4960938,0.717001096 L35.2605939,0.717001096 L47.3694759,32.1164912 L45.4946945,32.1164912 Z M34.3121751,2.95826754 L27.7835246,20.1050439 L40.973163,20.1050439 L34.4224563,2.95826754 L34.3121751,2.95826754 Z" id="Combined-Shape"></path>
                    <path d="M49.0898635,23.7389419 C49.3545385,28.9395504 54.0304638,32.5734485 60.5591142,32.5734485 C67.2201021,32.5734485 71.6534086,28.9395504 71.6534086,23.7389419 C71.6534086,19.5610471 68.8963772,17.2327412 62.7426831,15.7313103 L59.1916266,14.8391557 C54.0745763,13.5770833 51.7366136,11.7710143 51.7366136,8.6375932 C51.7366136,4.67729715 55.5523451,1.84851425 60.3385517,1.84851425 C65.3453207,1.84851425 69.0728272,4.59025768 69.315446,8.35471491 L71.0578898,8.35471491 C70.8593836,3.74162281 66.3819645,0.26004386 60.3826642,0.26004386 C54.5818701,0.26004386 49.9500573,3.78514254 49.9500573,8.68111294 C49.9500573,12.6196491 52.6188637,14.9697149 58.5078828,16.449386 L62.2795018,17.3633004 C67.6171146,18.6906524 69.8668523,20.583761 69.8668523,23.8695011 C69.8668523,27.9603564 66.0952333,30.9849781 60.6914517,30.9849781 C55.1553326,30.9849781 51.0969823,28.0038761 50.8323073,23.7389419 L49.0898635,23.7389419 Z" id="Path"></path>
                    <polygon id="Path" points="86.2767033 32.1164912 86.2767033 2.30547149 97.4151102 2.30547149 97.4151102 0.717001096 73.3737962 0.717001096 73.3737962 2.30547149 84.5342594 2.30547149 84.5342594 32.1164912"></polygon>
                    <path d="M123.141508,29.1455325 C123.67025,28.6369759 124.128769,28.0787104 124.512291,27.474386 L100.433584,27.474386 C100.785676,28.0811827 101.214428,28.6389942 101.715704,29.1455325 L123.141508,29.1455325 Z M122.02173,30.0739536 C119.702099,31.7340027 116.437206,32.6604879 112.47953,32.6604879 C108.379107,32.6604879 105.07237,31.7552928 102.792501,30.0739536 L122.02173,30.0739536 Z M111.609428,26.5459649 L99.9711109,26.5459649 C99.5267435,25.4919426 99.2865563,24.3137214 99.2678353,23.0208662 L106.965467,23.0208662 C107.216533,24.9071341 109.124823,26.2428554 111.609428,26.5459649 Z M113.844132,26.5459649 C116.341085,26.2502405 117.905368,24.978706 117.905368,23.3255044 C117.905368,21.5847149 116.559936,20.73608 112.942711,19.9962445 L108.77408,19.1911294 C102.907117,18.0813761 99.8854104,14.947955 99.8854104,10.1825439 C99.8854104,4.0897807 105.178911,0.173004386 112.545699,0.173004386 C120.508005,0.173004386 125.205987,3.98098136 125.294212,9.8779057 L117.839199,9.8779057 C117.684805,7.59311952 115.545349,6.22224781 112.633924,6.22224781 C109.810723,6.22224781 107.935942,7.48432018 107.935942,9.3991886 C107.935942,11.0964583 109.347542,12.0321327 112.678036,12.7066886 L116.802555,13.468284 C123.088587,14.6650768 125.911787,17.4720998 125.911787,22.4333498 C125.911787,23.944926 125.605546,25.3239236 125.024964,26.5459669 L113.844132,26.5459649 Z" id="Combined-Shape"></path>
                    <path d="M137.094306,29.1455325 L137.094306,27.474386 L145.166894,27.474386 L145.166894,29.1455325 L137.094306,29.1455325 Z M137.094306,30.0739536 L137.094306,32.1164912 L145.166894,32.1164912 L145.166894,30.0739536 L137.094306,30.0739536 Z M137.094306,26.5459649 L137.094306,7.15792215 L128.315918,7.15792215 L128.315918,0.717001096 L153.945282,0.717001096 L153.945282,7.15792215 L145.166894,7.15792215 L145.166894,26.5459649 L137.094306,26.5459649 Z" id="Combined-Shape"></path>
                    <path d="M177.430906,29.1455325 L176.944642,27.474386 L185.315834,27.474386 L185.885166,29.1455325 L177.430906,29.1455325 Z M177.701054,30.0739536 L178.295384,32.1164912 L186.897322,32.1164912 L186.201464,30.0739536 L177.701054,30.0739536 Z M164.722518,29.1455325 L165.214125,27.474386 L157.180989,27.474386 L156.611657,29.1455325 L164.722518,29.1455325 Z M164.4494,30.0739536 L163.848539,32.1164912 L155.599501,32.1164912 L156.29536,30.0739536 L164.4494,30.0739536 Z M176.674493,26.5459649 L176.288265,25.2186129 L165.877714,25.2186129 L165.487242,26.5459649 L157.497287,26.5459649 L166.296783,0.717001096 L176.20004,0.717001096 L184.999537,26.5459649 L176.674493,26.5459649 Z M170.994765,7.37552083 L167.443708,19.4740077 L174.700215,19.4740077 L171.171215,7.37552083 L170.994765,7.37552083 Z" id="Combined-Shape"></path>
                    <path d="M194.014679,29.1455325 C193.435914,28.639896 192.903506,28.0822844 192.419781,27.474386 L216.396375,27.474386 C215.927777,28.0786633 215.401461,28.6369375 214.822316,29.1455325 L194.014679,29.1455325 Z M195.214203,30.0739536 C197.688428,31.7655904 200.83552,32.6604879 204.520267,32.6604879 C208.082329,32.6604879 211.203743,31.7336191 213.626433,30.0739536 L195.214203,30.0739536 Z M191.744849,26.5459649 C190.0037,23.9205083 189.058835,20.5045205 189.058835,16.4058662 C189.058835,6.1569682 195.036079,0.173004386 204.520267,0.173004386 C212.570799,0.173004386 218.68038,5.28657346 218.922999,12.7066886 L211.137142,12.7066886 C210.74013,9.00751096 208.071323,6.5704057 204.520267,6.5704057 C200.109017,6.5704057 197.307873,10.2913432 197.307873,16.3841064 C197.307873,22.5421491 200.08696,26.2630866 204.542323,26.2630866 C208.09338,26.2630866 210.673961,23.9565406 211.181255,20.2791228 L218.967112,20.2791228 C218.847983,22.6504117 218.174486,24.764714 217.04777,26.5459649 L191.744849,26.5459649 Z" id="Combined-Shape"></path>
                    <path d="M222.760787,29.1455325 L222.760787,27.474386 L230.855431,27.474386 L230.855431,29.1455325 L222.760787,29.1455325 Z M222.760787,30.0739536 L222.760787,32.1164912 L230.855431,32.1164912 L230.855431,30.0739536 L222.760787,30.0739536 Z M249.193691,29.1455325 L248.070051,27.474386 L238.614904,27.474386 L239.720149,29.1455325 L249.193691,29.1455325 Z M249.81794,30.0739536 L251.191295,32.1164912 L241.68505,32.1164912 L240.334178,30.0739536 L249.81794,30.0739536 Z M222.760787,26.5459649 L222.760787,0.717001096 L230.855431,0.717001096 L230.855431,14.5127577 L231.031881,14.5127577 L241.8615,0.717001096 L250.551664,0.717001096 L239.457369,14.6650768 L247.445802,26.5459649 L238.000874,26.5459649 L233.56835,19.8439254 L230.855431,23.2384649 L230.855431,26.5459649 L222.760787,26.5459649 Z" id="Combined-Shape"></path>
                </g>
                <g id="Group-20">
                    <polygon id="Combined-Shape" fill-opacity="0.203351449" fill="#000000" filter="url(#filter-1)" points="40.2887949 51.5789474 0 74.5438596 40.2887949 97.5087719 80.5775899 74.5438596"></polygon>
                    <g id="Group-19" opacity="0.702275815" transform="translate(0.000000, 30.619883)">
                        <g id="Group-12" transform="translate(0.000000, 22.964912)">
                            <polygon id="Combined-Shape" fill="#546485" points="40.3186275 22.9649123 40.3186275 32.1508772 80.6074224 9.18596491 80.6074224 0"></polygon>
                            <polygon id="Combined-Shape" fill="#8596B8" transform="translate(20.144397, 16.075439) scale(-1, 1) translate(-20.144397, -16.075439) " points="-1.03028697e-13 22.9649123 5.67395971e-14 32.1508772 40.2887949 9.18596491 40.2887949 0"></polygon>
                        </g>
                        <polygon id="Combined-Shape" fill="#3A455C" points="80.5775899 22.9649123 40.2887949 0 0 22.9649123 40.2887949 45.9298246 80.5775899 22.9649123"></polygon>
                    </g>
                    <g id="Group-19-Copy" opacity="0.702275815" transform="translate(0.000000, 15.309942)">
                        <g id="Group-12" transform="translate(0.000000, 22.964912)">
                            <polygon id="Combined-Shape" fill="#ABFF4E" points="40.3186275 22.9649123 40.3186275 32.1508772 80.6074224 9.18596491 80.6074224 0"></polygon>
                            <polygon id="Combined-Shape" fill="#BFE893" transform="translate(20.144397, 16.075439) scale(-1, 1) translate(-20.144397, -16.075439) " points="-1.03028697e-13 22.9649123 5.67395971e-14 32.1508772 40.2887949 9.18596491 40.2887949 0"></polygon>
                        </g>
                        <polygon id="Combined-Shape" fill="#7ED321" points="80.5775899 22.9649123 40.2887949 0 0 22.9649123 40.2887949 45.9298246 80.5775899 22.9649123"></polygon>
                    </g>
                    <g id="Group-19-Copy-2" opacity="0.702275815">
                        <g id="Group-12" transform="translate(0.000000, 22.964912)">
                            <polygon id="Combined-Shape" fill="#FF7B59" points="40.3186275 22.9649123 40.3186275 32.1508772 80.6074224 9.18596491 80.6074224 0"></polygon>
                            <polygon id="Combined-Shape" fill="#F8D8CF" transform="translate(20.144397, 16.075439) scale(-1, 1) translate(-20.144397, -16.075439) " points="-1.03028697e-13 22.9649123 5.67395971e-14 32.1508772 40.2887949 9.18596491 40.2887949 0"></polygon>
                        </g>
                        <polygon id="Combined-Shape" fill="#F94618" points="40.2887949 0 0 22.9649123 40.2887949 45.9298246 80.5775899 22.9649123"></polygon>
                    </g>
                </g>
            </g>
        </g>
    </g>
</svg>